<mxfile host="Electron" agent="Mozilla/5.0 (Windows NT 10.0; Win64; x64) AppleWebKit/537.36 (KHTML, like Gecko) draw.io/25.0.2 Chrome/128.0.6613.186 Electron/32.2.5 Safari/537.36" version="25.0.2">
  <diagram name="Page-1" id="D1k8TDNZJm5W6gOoN39z">
    <mxGraphModel dx="3500" dy="2097" grid="1" gridSize="10" guides="1" tooltips="1" connect="1" arrows="1" fold="1" page="1" pageScale="1" pageWidth="827" pageHeight="1169" math="0" shadow="0">
      <root>
        <mxCell id="0" />
        <mxCell id="1" parent="0" />
        <mxCell id="Re3BrL7D_ri76bv2ay9p-19" value="&lt;ul&gt;&lt;li&gt;เพิ่มข้อมูลลงท้ายรายการ&lt;/li&gt;&lt;/ul&gt;" style="text;html=1;align=center;verticalAlign=middle;whiteSpace=wrap;rounded=0;fontFamily=Tahoma;fontSize=16;fontStyle=1;strokeWidth=1;" vertex="1" parent="1">
          <mxGeometry x="29" y="100" width="261" height="30" as="geometry" />
        </mxCell>
        <mxCell id="Re3BrL7D_ri76bv2ay9p-21" value="Flowchat :&amp;nbsp;" style="text;html=1;align=center;verticalAlign=middle;whiteSpace=wrap;rounded=0;fontSize=17;fontStyle=1;strokeWidth=1;" vertex="1" parent="1">
          <mxGeometry x="49" y="50" width="100" height="30" as="geometry" />
        </mxCell>
        <mxCell id="Re3BrL7D_ri76bv2ay9p-23" value="" style="group;fontSize=14;strokeWidth=1;" vertex="1" connectable="0" parent="1">
          <mxGeometry x="124" y="170" width="580" height="540" as="geometry" />
        </mxCell>
        <mxCell id="Re3BrL7D_ri76bv2ay9p-3" value="" style="edgeStyle=orthogonalEdgeStyle;rounded=0;orthogonalLoop=1;jettySize=auto;html=1;fontSize=14;strokeWidth=1;" edge="1" parent="Re3BrL7D_ri76bv2ay9p-23" source="Re3BrL7D_ri76bv2ay9p-1" target="Re3BrL7D_ri76bv2ay9p-2">
          <mxGeometry relative="1" as="geometry" />
        </mxCell>
        <mxCell id="Re3BrL7D_ri76bv2ay9p-1" value="เริ่ม" style="strokeWidth=1;html=1;shape=mxgraph.flowchart.terminator;whiteSpace=wrap;fontSize=14;" vertex="1" parent="Re3BrL7D_ri76bv2ay9p-23">
          <mxGeometry x="50" width="170" height="60" as="geometry" />
        </mxCell>
        <mxCell id="Re3BrL7D_ri76bv2ay9p-5" value="" style="edgeStyle=orthogonalEdgeStyle;rounded=0;orthogonalLoop=1;jettySize=auto;html=1;fontSize=14;strokeWidth=1;" edge="1" parent="Re3BrL7D_ri76bv2ay9p-23" source="Re3BrL7D_ri76bv2ay9p-2" target="Re3BrL7D_ri76bv2ay9p-4">
          <mxGeometry relative="1" as="geometry" />
        </mxCell>
        <mxCell id="Re3BrL7D_ri76bv2ay9p-2" value="รับข้อมูลจาก user" style="whiteSpace=wrap;html=1;strokeWidth=1;fontSize=14;" vertex="1" parent="Re3BrL7D_ri76bv2ay9p-23">
          <mxGeometry x="25" y="100" width="220" height="60" as="geometry" />
        </mxCell>
        <mxCell id="Re3BrL7D_ri76bv2ay9p-7" value="" style="edgeStyle=orthogonalEdgeStyle;rounded=0;orthogonalLoop=1;jettySize=auto;html=1;fontSize=14;strokeWidth=1;" edge="1" parent="Re3BrL7D_ri76bv2ay9p-23" source="Re3BrL7D_ri76bv2ay9p-4" target="Re3BrL7D_ri76bv2ay9p-6">
          <mxGeometry relative="1" as="geometry" />
        </mxCell>
        <mxCell id="Re3BrL7D_ri76bv2ay9p-10" style="edgeStyle=orthogonalEdgeStyle;rounded=0;orthogonalLoop=1;jettySize=auto;html=1;entryX=0.5;entryY=0;entryDx=0;entryDy=0;fontSize=14;strokeWidth=1;" edge="1" parent="Re3BrL7D_ri76bv2ay9p-23" source="Re3BrL7D_ri76bv2ay9p-4" target="Re3BrL7D_ri76bv2ay9p-9">
          <mxGeometry relative="1" as="geometry" />
        </mxCell>
        <mxCell id="Re3BrL7D_ri76bv2ay9p-4" value="ถ้าใน list ไม่มีข้อมูล" style="rhombus;whiteSpace=wrap;html=1;fontSize=14;strokeWidth=1;" vertex="1" parent="Re3BrL7D_ri76bv2ay9p-23">
          <mxGeometry y="189.9999999999999" width="270" height="130" as="geometry" />
        </mxCell>
        <mxCell id="Re3BrL7D_ri76bv2ay9p-13" value="" style="edgeStyle=orthogonalEdgeStyle;rounded=0;orthogonalLoop=1;jettySize=auto;html=1;fontSize=14;strokeWidth=1;" edge="1" parent="Re3BrL7D_ri76bv2ay9p-23" source="Re3BrL7D_ri76bv2ay9p-15" target="Re3BrL7D_ri76bv2ay9p-12">
          <mxGeometry relative="1" as="geometry" />
        </mxCell>
        <mxCell id="Re3BrL7D_ri76bv2ay9p-6" value="เพิ่มข้อมูลลงใน list" style="whiteSpace=wrap;html=1;strokeWidth=1;fontSize=14;" vertex="1" parent="Re3BrL7D_ri76bv2ay9p-23">
          <mxGeometry x="25" y="360" width="220" height="60" as="geometry" />
        </mxCell>
        <mxCell id="Re3BrL7D_ri76bv2ay9p-8" value="Y" style="text;html=1;align=center;verticalAlign=middle;whiteSpace=wrap;rounded=0;fontSize=14;strokeWidth=1;" vertex="1" parent="Re3BrL7D_ri76bv2ay9p-23">
          <mxGeometry x="120" y="320" width="60" height="30" as="geometry" />
        </mxCell>
        <mxCell id="Re3BrL7D_ri76bv2ay9p-14" style="edgeStyle=orthogonalEdgeStyle;rounded=0;orthogonalLoop=1;jettySize=auto;html=1;exitX=0.5;exitY=1;exitDx=0;exitDy=0;entryX=1;entryY=0.5;entryDx=0;entryDy=0;fontSize=14;strokeWidth=1;" edge="1" parent="Re3BrL7D_ri76bv2ay9p-23" source="Re3BrL7D_ri76bv2ay9p-9" target="Re3BrL7D_ri76bv2ay9p-15">
          <mxGeometry relative="1" as="geometry">
            <mxPoint x="140" y="460" as="targetPoint" />
            <Array as="points">
              <mxPoint x="470" y="450" />
            </Array>
          </mxGeometry>
        </mxCell>
        <mxCell id="Re3BrL7D_ri76bv2ay9p-9" value="เพิ่มข้อมูลต่อท้าย list" style="whiteSpace=wrap;html=1;strokeWidth=1;fontSize=14;" vertex="1" parent="Re3BrL7D_ri76bv2ay9p-23">
          <mxGeometry x="360" y="360" width="220" height="60" as="geometry" />
        </mxCell>
        <mxCell id="Re3BrL7D_ri76bv2ay9p-12" value="จบ" style="strokeWidth=1;html=1;shape=mxgraph.flowchart.terminator;whiteSpace=wrap;fontSize=14;" vertex="1" parent="Re3BrL7D_ri76bv2ay9p-23">
          <mxGeometry x="50" y="480" width="170" height="60" as="geometry" />
        </mxCell>
        <mxCell id="Re3BrL7D_ri76bv2ay9p-16" value="" style="edgeStyle=orthogonalEdgeStyle;rounded=0;orthogonalLoop=1;jettySize=auto;html=1;fontSize=14;strokeWidth=1;" edge="1" parent="Re3BrL7D_ri76bv2ay9p-23" source="Re3BrL7D_ri76bv2ay9p-6" target="Re3BrL7D_ri76bv2ay9p-15">
          <mxGeometry relative="1" as="geometry">
            <mxPoint x="135" y="420" as="sourcePoint" />
            <mxPoint x="135" y="480" as="targetPoint" />
          </mxGeometry>
        </mxCell>
        <mxCell id="Re3BrL7D_ri76bv2ay9p-15" value="" style="ellipse;whiteSpace=wrap;html=1;aspect=fixed;fontSize=14;strokeWidth=1;" vertex="1" parent="Re3BrL7D_ri76bv2ay9p-23">
          <mxGeometry x="125" y="440" width="20" height="20" as="geometry" />
        </mxCell>
        <mxCell id="Re3BrL7D_ri76bv2ay9p-25" value="&lt;ul&gt;&lt;li&gt;แทรกข้อมูลหน้า ข้อมูลที่กำหนด&lt;/li&gt;&lt;/ul&gt;" style="text;html=1;align=left;verticalAlign=middle;whiteSpace=wrap;rounded=0;fontSize=16;strokeWidth=1;" vertex="1" parent="1">
          <mxGeometry x="80" y="1240" width="300" height="30" as="geometry" />
        </mxCell>
        <mxCell id="Re3BrL7D_ri76bv2ay9p-41" value="" style="group;strokeWidth=1;fontSize=14;" vertex="1" connectable="0" parent="1">
          <mxGeometry x="490" y="1360" width="290" height="570" as="geometry" />
        </mxCell>
        <mxCell id="Re3BrL7D_ri76bv2ay9p-28" value="" style="edgeStyle=orthogonalEdgeStyle;rounded=0;orthogonalLoop=1;jettySize=auto;html=1;fontFamily=Helvetica;fontSize=14;fontColor=default;strokeWidth=1;" edge="1" parent="Re3BrL7D_ri76bv2ay9p-41" source="Re3BrL7D_ri76bv2ay9p-24" target="Re3BrL7D_ri76bv2ay9p-27">
          <mxGeometry relative="1" as="geometry" />
        </mxCell>
        <mxCell id="Re3BrL7D_ri76bv2ay9p-24" value="เริ่ม" style="strokeWidth=1;html=1;shape=mxgraph.flowchart.terminator;whiteSpace=wrap;fontSize=14;" vertex="1" parent="Re3BrL7D_ri76bv2ay9p-41">
          <mxGeometry x="50" width="170" height="60" as="geometry" />
        </mxCell>
        <mxCell id="Re3BrL7D_ri76bv2ay9p-30" value="" style="edgeStyle=orthogonalEdgeStyle;rounded=0;orthogonalLoop=1;jettySize=auto;html=1;fontFamily=Helvetica;fontSize=14;fontColor=default;strokeWidth=1;" edge="1" parent="Re3BrL7D_ri76bv2ay9p-41" source="Re3BrL7D_ri76bv2ay9p-27" target="Re3BrL7D_ri76bv2ay9p-29">
          <mxGeometry relative="1" as="geometry" />
        </mxCell>
        <mxCell id="Re3BrL7D_ri76bv2ay9p-27" value="&lt;span&gt;รับข้อมูลจาก user&lt;/span&gt;" style="whiteSpace=wrap;html=1;strokeWidth=1;rounded=0;align=center;verticalAlign=middle;fontFamily=Helvetica;fontSize=14;fontColor=default;fillColor=none;gradientColor=none;" vertex="1" parent="Re3BrL7D_ri76bv2ay9p-41">
          <mxGeometry x="25" y="110" width="220" height="60" as="geometry" />
        </mxCell>
        <mxCell id="Re3BrL7D_ri76bv2ay9p-36" value="" style="edgeStyle=orthogonalEdgeStyle;rounded=0;orthogonalLoop=1;jettySize=auto;html=1;fontFamily=Helvetica;fontSize=14;fontColor=default;strokeWidth=1;" edge="1" parent="Re3BrL7D_ri76bv2ay9p-41" source="Re3BrL7D_ri76bv2ay9p-29" target="Re3BrL7D_ri76bv2ay9p-34">
          <mxGeometry relative="1" as="geometry" />
        </mxCell>
        <mxCell id="Re3BrL7D_ri76bv2ay9p-40" style="edgeStyle=orthogonalEdgeStyle;rounded=0;orthogonalLoop=1;jettySize=auto;html=1;fontFamily=Helvetica;fontSize=14;fontColor=default;exitX=1;exitY=0.5;exitDx=0;exitDy=0;strokeWidth=1;" edge="1" parent="Re3BrL7D_ri76bv2ay9p-41" source="Re3BrL7D_ri76bv2ay9p-29">
          <mxGeometry relative="1" as="geometry">
            <mxPoint x="134.99999999999977" y="490" as="targetPoint" />
            <Array as="points">
              <mxPoint x="290" y="265" />
              <mxPoint x="290" y="490" />
            </Array>
          </mxGeometry>
        </mxCell>
        <mxCell id="Re3BrL7D_ri76bv2ay9p-29" value="&lt;span&gt;ถ้าใน list ไม่ว่า&lt;/span&gt;" style="rhombus;whiteSpace=wrap;html=1;rounded=0;align=center;verticalAlign=middle;fontFamily=Helvetica;fontSize=14;fontColor=default;fillColor=none;gradientColor=none;strokeWidth=1;" vertex="1" parent="Re3BrL7D_ri76bv2ay9p-41">
          <mxGeometry y="200" width="270" height="130" as="geometry" />
        </mxCell>
        <mxCell id="Re3BrL7D_ri76bv2ay9p-39" value="" style="edgeStyle=orthogonalEdgeStyle;rounded=0;orthogonalLoop=1;jettySize=auto;html=1;fontFamily=Helvetica;fontSize=14;fontColor=default;strokeWidth=1;" edge="1" parent="Re3BrL7D_ri76bv2ay9p-41" source="Re3BrL7D_ri76bv2ay9p-34" target="Re3BrL7D_ri76bv2ay9p-38">
          <mxGeometry relative="1" as="geometry" />
        </mxCell>
        <mxCell id="Re3BrL7D_ri76bv2ay9p-34" value="เพิ่มข้อมูลหลังตำแหน่งที่ผู้ใช้กำหนด" style="whiteSpace=wrap;html=1;strokeWidth=1;rounded=0;align=center;verticalAlign=middle;fontFamily=Helvetica;fontSize=14;fontColor=default;fillColor=none;gradientColor=none;" vertex="1" parent="Re3BrL7D_ri76bv2ay9p-41">
          <mxGeometry x="17" y="390" width="236" height="60" as="geometry" />
        </mxCell>
        <mxCell id="Re3BrL7D_ri76bv2ay9p-37" value="Y" style="text;html=1;align=center;verticalAlign=middle;whiteSpace=wrap;rounded=0;fontFamily=Helvetica;fontSize=14;fontColor=default;strokeWidth=1;" vertex="1" parent="Re3BrL7D_ri76bv2ay9p-41">
          <mxGeometry x="135" y="350" width="60" height="30" as="geometry" />
        </mxCell>
        <mxCell id="Re3BrL7D_ri76bv2ay9p-38" value="จบ" style="strokeWidth=1;html=1;shape=mxgraph.flowchart.terminator;whiteSpace=wrap;rounded=0;align=center;verticalAlign=middle;fontFamily=Helvetica;fontSize=14;fontColor=default;fillColor=none;gradientColor=none;" vertex="1" parent="Re3BrL7D_ri76bv2ay9p-41">
          <mxGeometry x="50" y="510" width="170" height="60" as="geometry" />
        </mxCell>
        <mxCell id="Re3BrL7D_ri76bv2ay9p-42" value="" style="group;strokeWidth=1;fontSize=14;" vertex="1" connectable="0" parent="1">
          <mxGeometry x="70" y="1360" width="290" height="570" as="geometry" />
        </mxCell>
        <mxCell id="Re3BrL7D_ri76bv2ay9p-43" value="" style="edgeStyle=orthogonalEdgeStyle;rounded=0;orthogonalLoop=1;jettySize=auto;html=1;fontFamily=Helvetica;fontSize=14;fontColor=default;strokeWidth=1;" edge="1" parent="Re3BrL7D_ri76bv2ay9p-42" source="Re3BrL7D_ri76bv2ay9p-44" target="Re3BrL7D_ri76bv2ay9p-46">
          <mxGeometry relative="1" as="geometry" />
        </mxCell>
        <mxCell id="Re3BrL7D_ri76bv2ay9p-44" value="เริ่ม" style="strokeWidth=1;html=1;shape=mxgraph.flowchart.terminator;whiteSpace=wrap;fontSize=14;" vertex="1" parent="Re3BrL7D_ri76bv2ay9p-42">
          <mxGeometry x="50" width="170" height="60" as="geometry" />
        </mxCell>
        <mxCell id="Re3BrL7D_ri76bv2ay9p-45" value="" style="edgeStyle=orthogonalEdgeStyle;rounded=0;orthogonalLoop=1;jettySize=auto;html=1;fontFamily=Helvetica;fontSize=14;fontColor=default;strokeWidth=1;" edge="1" parent="Re3BrL7D_ri76bv2ay9p-42" source="Re3BrL7D_ri76bv2ay9p-46" target="Re3BrL7D_ri76bv2ay9p-49">
          <mxGeometry relative="1" as="geometry" />
        </mxCell>
        <mxCell id="Re3BrL7D_ri76bv2ay9p-46" value="&lt;span&gt;รับข้อมูลจาก user&lt;/span&gt;" style="whiteSpace=wrap;html=1;strokeWidth=1;rounded=0;align=center;verticalAlign=middle;fontFamily=Helvetica;fontSize=14;fontColor=default;fillColor=none;gradientColor=none;" vertex="1" parent="Re3BrL7D_ri76bv2ay9p-42">
          <mxGeometry x="25" y="110" width="220" height="60" as="geometry" />
        </mxCell>
        <mxCell id="Re3BrL7D_ri76bv2ay9p-47" value="" style="edgeStyle=orthogonalEdgeStyle;rounded=0;orthogonalLoop=1;jettySize=auto;html=1;fontFamily=Helvetica;fontSize=14;fontColor=default;strokeWidth=1;" edge="1" parent="Re3BrL7D_ri76bv2ay9p-42" source="Re3BrL7D_ri76bv2ay9p-49" target="Re3BrL7D_ri76bv2ay9p-51">
          <mxGeometry relative="1" as="geometry" />
        </mxCell>
        <mxCell id="Re3BrL7D_ri76bv2ay9p-48" style="edgeStyle=orthogonalEdgeStyle;rounded=0;orthogonalLoop=1;jettySize=auto;html=1;fontFamily=Helvetica;fontSize=14;fontColor=default;exitX=1;exitY=0.5;exitDx=0;exitDy=0;strokeWidth=1;" edge="1" parent="Re3BrL7D_ri76bv2ay9p-42" source="Re3BrL7D_ri76bv2ay9p-49">
          <mxGeometry relative="1" as="geometry">
            <mxPoint x="134.99999999999977" y="490" as="targetPoint" />
            <Array as="points">
              <mxPoint x="290" y="265" />
              <mxPoint x="290" y="490" />
            </Array>
          </mxGeometry>
        </mxCell>
        <mxCell id="Re3BrL7D_ri76bv2ay9p-49" value="&lt;span&gt;ถ้าใน list ไม่ว่า&lt;/span&gt;" style="rhombus;whiteSpace=wrap;html=1;rounded=0;align=center;verticalAlign=middle;fontFamily=Helvetica;fontSize=14;fontColor=default;fillColor=none;gradientColor=none;strokeWidth=1;" vertex="1" parent="Re3BrL7D_ri76bv2ay9p-42">
          <mxGeometry y="200" width="270" height="130" as="geometry" />
        </mxCell>
        <mxCell id="Re3BrL7D_ri76bv2ay9p-50" value="" style="edgeStyle=orthogonalEdgeStyle;rounded=0;orthogonalLoop=1;jettySize=auto;html=1;fontFamily=Helvetica;fontSize=14;fontColor=default;strokeWidth=1;" edge="1" parent="Re3BrL7D_ri76bv2ay9p-42" source="Re3BrL7D_ri76bv2ay9p-51" target="Re3BrL7D_ri76bv2ay9p-53">
          <mxGeometry relative="1" as="geometry" />
        </mxCell>
        <mxCell id="Re3BrL7D_ri76bv2ay9p-51" value="เพิ่มข้อมูลหน้าตำแหน่งที่ผู้ใช้กำหนด" style="whiteSpace=wrap;html=1;strokeWidth=1;rounded=0;align=center;verticalAlign=middle;fontFamily=Helvetica;fontSize=14;fontColor=default;fillColor=none;gradientColor=none;" vertex="1" parent="Re3BrL7D_ri76bv2ay9p-42">
          <mxGeometry x="17" y="390" width="236" height="60" as="geometry" />
        </mxCell>
        <mxCell id="Re3BrL7D_ri76bv2ay9p-52" value="Y" style="text;html=1;align=center;verticalAlign=middle;whiteSpace=wrap;rounded=0;fontFamily=Helvetica;fontSize=14;fontColor=default;strokeWidth=1;" vertex="1" parent="Re3BrL7D_ri76bv2ay9p-42">
          <mxGeometry x="135" y="350" width="60" height="30" as="geometry" />
        </mxCell>
        <mxCell id="Re3BrL7D_ri76bv2ay9p-53" value="จบ" style="strokeWidth=1;html=1;shape=mxgraph.flowchart.terminator;whiteSpace=wrap;rounded=0;align=center;verticalAlign=middle;fontFamily=Helvetica;fontSize=14;fontColor=default;fillColor=none;gradientColor=none;" vertex="1" parent="Re3BrL7D_ri76bv2ay9p-42">
          <mxGeometry x="50" y="510" width="170" height="60" as="geometry" />
        </mxCell>
        <mxCell id="Re3BrL7D_ri76bv2ay9p-54" value="&lt;ul&gt;&lt;li&gt;แทรกข้อมูลหลัง ข้อมูลที่กำหนด&lt;/li&gt;&lt;/ul&gt;" style="text;html=1;align=left;verticalAlign=middle;whiteSpace=wrap;rounded=0;fontSize=16;strokeWidth=1;" vertex="1" parent="1">
          <mxGeometry x="470" y="1240" width="300" height="30" as="geometry" />
        </mxCell>
        <mxCell id="Re3BrL7D_ri76bv2ay9p-55" value="&lt;ul&gt;&lt;li&gt;ลบข้อมูลตามตำแหน่งที่กำหนด&lt;/li&gt;&lt;/ul&gt;" style="text;html=1;align=left;verticalAlign=middle;whiteSpace=wrap;rounded=0;fontFamily=Helvetica;fontSize=16;fontColor=default;strokeWidth=1;" vertex="1" parent="1">
          <mxGeometry x="60" y="2400" width="286" height="30" as="geometry" />
        </mxCell>
        <mxCell id="Re3BrL7D_ri76bv2ay9p-58" value="" style="edgeStyle=orthogonalEdgeStyle;rounded=0;orthogonalLoop=1;jettySize=auto;html=1;fontFamily=Helvetica;fontSize=14;fontColor=default;strokeWidth=1;" edge="1" parent="1" source="Re3BrL7D_ri76bv2ay9p-56" target="Re3BrL7D_ri76bv2ay9p-57">
          <mxGeometry relative="1" as="geometry" />
        </mxCell>
        <mxCell id="Re3BrL7D_ri76bv2ay9p-56" value="เริ่ม" style="strokeWidth=1;html=1;shape=mxgraph.flowchart.terminator;whiteSpace=wrap;rounded=0;align=center;verticalAlign=middle;fontFamily=Helvetica;fontSize=14;fontColor=default;fillColor=none;gradientColor=none;" vertex="1" parent="1">
          <mxGeometry x="120" y="2490" width="170" height="60" as="geometry" />
        </mxCell>
        <mxCell id="Re3BrL7D_ri76bv2ay9p-61" value="" style="edgeStyle=orthogonalEdgeStyle;rounded=0;orthogonalLoop=1;jettySize=auto;html=1;fontFamily=Helvetica;fontSize=14;fontColor=default;strokeWidth=1;" edge="1" parent="1" source="Re3BrL7D_ri76bv2ay9p-57" target="Re3BrL7D_ri76bv2ay9p-60">
          <mxGeometry relative="1" as="geometry" />
        </mxCell>
        <mxCell id="Re3BrL7D_ri76bv2ay9p-57" value="&lt;span&gt;รับข้อมูลจาก user&lt;/span&gt;" style="whiteSpace=wrap;html=1;strokeWidth=1;rounded=0;align=center;verticalAlign=middle;fontFamily=Helvetica;fontSize=14;fontColor=default;fillColor=none;gradientColor=none;" vertex="1" parent="1">
          <mxGeometry x="95" y="2600" width="220" height="60" as="geometry" />
        </mxCell>
        <mxCell id="Re3BrL7D_ri76bv2ay9p-63" value="" style="edgeStyle=orthogonalEdgeStyle;rounded=0;orthogonalLoop=1;jettySize=auto;html=1;fontFamily=Helvetica;fontSize=14;fontColor=default;strokeWidth=1;" edge="1" parent="1" source="Re3BrL7D_ri76bv2ay9p-60" target="Re3BrL7D_ri76bv2ay9p-62">
          <mxGeometry relative="1" as="geometry" />
        </mxCell>
        <mxCell id="Re3BrL7D_ri76bv2ay9p-68" style="edgeStyle=orthogonalEdgeStyle;rounded=0;orthogonalLoop=1;jettySize=auto;html=1;fontFamily=Helvetica;fontSize=14;fontColor=default;exitX=1;exitY=0.5;exitDx=0;exitDy=0;strokeWidth=1;" edge="1" parent="1" source="Re3BrL7D_ri76bv2ay9p-60">
          <mxGeometry relative="1" as="geometry">
            <mxPoint x="205" y="3100.0000000000005" as="targetPoint" />
            <Array as="points">
              <mxPoint x="360" y="2775" />
              <mxPoint x="360" y="3100" />
            </Array>
          </mxGeometry>
        </mxCell>
        <mxCell id="Re3BrL7D_ri76bv2ay9p-60" value="&lt;span&gt;ถ้าใน list ไม่ว่าง&lt;/span&gt;" style="rhombus;whiteSpace=wrap;html=1;rounded=0;align=center;verticalAlign=middle;fontFamily=Helvetica;fontSize=14;fontColor=default;fillColor=none;gradientColor=none;strokeWidth=1;" vertex="1" parent="1">
          <mxGeometry x="70" y="2710" width="270" height="130" as="geometry" />
        </mxCell>
        <mxCell id="Re3BrL7D_ri76bv2ay9p-65" value="" style="edgeStyle=orthogonalEdgeStyle;rounded=0;orthogonalLoop=1;jettySize=auto;html=1;fontFamily=Helvetica;fontSize=14;fontColor=default;strokeWidth=1;" edge="1" parent="1" source="Re3BrL7D_ri76bv2ay9p-62" target="Re3BrL7D_ri76bv2ay9p-64">
          <mxGeometry relative="1" as="geometry" />
        </mxCell>
        <mxCell id="Re3BrL7D_ri76bv2ay9p-62" value="หาข้อมูล ที่ต้องการลบ โดยเรียกใช้ mathod search" style="whiteSpace=wrap;html=1;strokeWidth=1;rounded=0;align=center;verticalAlign=middle;fontFamily=Helvetica;fontSize=14;fontColor=default;fillColor=none;gradientColor=none;" vertex="1" parent="1">
          <mxGeometry x="95" y="2870" width="220" height="60" as="geometry" />
        </mxCell>
        <mxCell id="Re3BrL7D_ri76bv2ay9p-67" value="" style="edgeStyle=orthogonalEdgeStyle;rounded=0;orthogonalLoop=1;jettySize=auto;html=1;fontFamily=Helvetica;fontSize=14;fontColor=default;strokeWidth=1;" edge="1" parent="1" source="Re3BrL7D_ri76bv2ay9p-64" target="Re3BrL7D_ri76bv2ay9p-66">
          <mxGeometry relative="1" as="geometry" />
        </mxCell>
        <mxCell id="Re3BrL7D_ri76bv2ay9p-64" value="ลบข้อมูลที่ได้รับจาก mathod search" style="whiteSpace=wrap;html=1;strokeWidth=1;rounded=0;align=center;verticalAlign=middle;fontFamily=Helvetica;fontSize=14;fontColor=default;fillColor=none;gradientColor=none;" vertex="1" parent="1">
          <mxGeometry x="95" y="2987" width="220" height="60" as="geometry" />
        </mxCell>
        <mxCell id="Re3BrL7D_ri76bv2ay9p-66" value="จบ" style="strokeWidth=1;html=1;shape=mxgraph.flowchart.terminator;whiteSpace=wrap;rounded=0;align=center;verticalAlign=middle;fontFamily=Helvetica;fontSize=14;fontColor=default;fillColor=none;gradientColor=none;" vertex="1" parent="1">
          <mxGeometry x="120" y="3120" width="170" height="60" as="geometry" />
        </mxCell>
        <mxCell id="Re3BrL7D_ri76bv2ay9p-69" value="&lt;ul&gt;&lt;li&gt;หาข้อมูล&lt;/li&gt;&lt;/ul&gt;" style="text;html=1;align=left;verticalAlign=middle;whiteSpace=wrap;rounded=0;fontFamily=Helvetica;fontSize=16;fontColor=default;strokeWidth=1;" vertex="1" parent="1">
          <mxGeometry x="490" y="2400" width="130" height="30" as="geometry" />
        </mxCell>
        <mxCell id="Re3BrL7D_ri76bv2ay9p-73" value="" style="edgeStyle=orthogonalEdgeStyle;rounded=0;orthogonalLoop=1;jettySize=auto;html=1;fontFamily=Helvetica;fontSize=14;fontColor=default;strokeWidth=1;" edge="1" parent="1" source="Re3BrL7D_ri76bv2ay9p-71" target="Re3BrL7D_ri76bv2ay9p-72">
          <mxGeometry relative="1" as="geometry" />
        </mxCell>
        <mxCell id="Re3BrL7D_ri76bv2ay9p-71" value="เริ่ม" style="strokeWidth=1;html=1;shape=mxgraph.flowchart.terminator;whiteSpace=wrap;rounded=0;align=center;verticalAlign=middle;fontFamily=Helvetica;fontSize=14;fontColor=default;fillColor=none;gradientColor=none;" vertex="1" parent="1">
          <mxGeometry x="535" y="2500" width="170" height="60" as="geometry" />
        </mxCell>
        <mxCell id="Re3BrL7D_ri76bv2ay9p-78" value="" style="edgeStyle=orthogonalEdgeStyle;rounded=0;orthogonalLoop=1;jettySize=auto;html=1;fontFamily=Helvetica;fontSize=14;fontColor=default;strokeWidth=1;" edge="1" parent="1" source="Re3BrL7D_ri76bv2ay9p-72" target="Re3BrL7D_ri76bv2ay9p-77">
          <mxGeometry relative="1" as="geometry" />
        </mxCell>
        <mxCell id="Re3BrL7D_ri76bv2ay9p-72" value="&lt;span&gt;รับข้อมูลจาก user&lt;/span&gt;" style="whiteSpace=wrap;html=1;strokeWidth=1;rounded=0;align=center;verticalAlign=middle;fontFamily=Helvetica;fontSize=14;fontColor=default;fillColor=none;gradientColor=none;" vertex="1" parent="1">
          <mxGeometry x="510" y="2610" width="220" height="60" as="geometry" />
        </mxCell>
        <mxCell id="Re3BrL7D_ri76bv2ay9p-80" value="" style="edgeStyle=orthogonalEdgeStyle;rounded=0;orthogonalLoop=1;jettySize=auto;html=1;fontFamily=Helvetica;fontSize=14;fontColor=default;strokeWidth=1;" edge="1" parent="1" source="Re3BrL7D_ri76bv2ay9p-77" target="Re3BrL7D_ri76bv2ay9p-79">
          <mxGeometry relative="1" as="geometry" />
        </mxCell>
        <mxCell id="Re3BrL7D_ri76bv2ay9p-77" value="กำหนดตัวแปร int i = 0" style="whiteSpace=wrap;html=1;strokeWidth=1;rounded=0;align=center;verticalAlign=middle;fontFamily=Helvetica;fontSize=14;fontColor=default;fillColor=none;gradientColor=none;" vertex="1" parent="1">
          <mxGeometry x="510" y="2720" width="220" height="60" as="geometry" />
        </mxCell>
        <mxCell id="Re3BrL7D_ri76bv2ay9p-82" value="" style="edgeStyle=orthogonalEdgeStyle;rounded=0;orthogonalLoop=1;jettySize=auto;html=1;fontFamily=Helvetica;fontSize=14;fontColor=default;strokeWidth=1;" edge="1" parent="1" source="Re3BrL7D_ri76bv2ay9p-79" target="Re3BrL7D_ri76bv2ay9p-81">
          <mxGeometry relative="1" as="geometry" />
        </mxCell>
        <mxCell id="Re3BrL7D_ri76bv2ay9p-88" style="edgeStyle=orthogonalEdgeStyle;rounded=0;orthogonalLoop=1;jettySize=auto;html=1;fontFamily=Helvetica;fontSize=14;fontColor=default;exitX=1;exitY=0.5;exitDx=0;exitDy=0;entryX=0.5;entryY=0;entryDx=0;entryDy=0;entryPerimeter=0;strokeWidth=1;" edge="1" parent="1" source="Re3BrL7D_ri76bv2ay9p-79" target="Re3BrL7D_ri76bv2ay9p-85">
          <mxGeometry relative="1" as="geometry">
            <mxPoint x="620" y="3280" as="targetPoint" />
            <Array as="points">
              <mxPoint x="769" y="2881" />
              <mxPoint x="769" y="3280" />
              <mxPoint x="620" y="3280" />
            </Array>
          </mxGeometry>
        </mxCell>
        <mxCell id="Re3BrL7D_ri76bv2ay9p-79" value="ถ้า i น้อยกว่า จำนวนข้อมูลใน list" style="rhombus;whiteSpace=wrap;html=1;rounded=0;align=center;verticalAlign=middle;fontFamily=Helvetica;fontSize=14;fontColor=default;fillColor=none;gradientColor=none;strokeWidth=1;" vertex="1" parent="1">
          <mxGeometry x="491.25" y="2820" width="257.5" height="122.2" as="geometry" />
        </mxCell>
        <mxCell id="Re3BrL7D_ri76bv2ay9p-84" value="" style="edgeStyle=orthogonalEdgeStyle;rounded=0;orthogonalLoop=1;jettySize=auto;html=1;fontFamily=Helvetica;fontSize=14;fontColor=default;strokeWidth=1;" edge="1" parent="1" source="Re3BrL7D_ri76bv2ay9p-81" target="Re3BrL7D_ri76bv2ay9p-83">
          <mxGeometry relative="1" as="geometry" />
        </mxCell>
        <mxCell id="Re3BrL7D_ri76bv2ay9p-90" style="edgeStyle=orthogonalEdgeStyle;rounded=0;orthogonalLoop=1;jettySize=auto;html=1;entryX=0.5;entryY=0;entryDx=0;entryDy=0;fontFamily=Helvetica;fontSize=14;fontColor=#000000;exitX=0;exitY=0.5;exitDx=0;exitDy=0;labelBorderColor=default;strokeColor=#0000FF;strokeWidth=1;" edge="1" parent="1" source="Re3BrL7D_ri76bv2ay9p-81" target="Re3BrL7D_ri76bv2ay9p-89">
          <mxGeometry relative="1" as="geometry" />
        </mxCell>
        <mxCell id="Re3BrL7D_ri76bv2ay9p-81" value="ถ้าข้อมูลจากผู้ใช้เมือนกัน ข้อมูลในlist" style="rhombus;whiteSpace=wrap;html=1;rounded=0;align=center;verticalAlign=middle;fontFamily=Helvetica;fontSize=14;fontColor=default;fillColor=none;gradientColor=none;fontStyle=0;strokeWidth=1;" vertex="1" parent="1">
          <mxGeometry x="485" y="3000" width="270" height="130" as="geometry" />
        </mxCell>
        <mxCell id="Re3BrL7D_ri76bv2ay9p-113" style="edgeStyle=orthogonalEdgeStyle;rounded=0;orthogonalLoop=1;jettySize=auto;html=1;entryX=0;entryY=0.5;entryDx=0;entryDy=0;fontFamily=Helvetica;fontSize=14;fontColor=default;exitX=0.5;exitY=1;exitDx=0;exitDy=0;strokeWidth=1;" edge="1" parent="1" source="Re3BrL7D_ri76bv2ay9p-83" target="Re3BrL7D_ri76bv2ay9p-79">
          <mxGeometry relative="1" as="geometry">
            <Array as="points">
              <mxPoint x="620" y="3260" />
              <mxPoint x="440" y="3260" />
              <mxPoint x="440" y="2881" />
            </Array>
          </mxGeometry>
        </mxCell>
        <mxCell id="Re3BrL7D_ri76bv2ay9p-83" value="ส่งข้อมูลใน list ไปให้ผู้ใช้" style="whiteSpace=wrap;html=1;strokeWidth=1;rounded=0;align=center;verticalAlign=middle;fontFamily=Helvetica;fontSize=14;fontColor=default;fillColor=none;gradientColor=none;" vertex="1" parent="1">
          <mxGeometry x="510" y="3180" width="220" height="60" as="geometry" />
        </mxCell>
        <mxCell id="Re3BrL7D_ri76bv2ay9p-85" value="จบ" style="strokeWidth=1;html=1;shape=mxgraph.flowchart.terminator;whiteSpace=wrap;rounded=0;align=center;verticalAlign=middle;fontFamily=Helvetica;fontSize=14;fontColor=default;fillColor=none;gradientColor=none;" vertex="1" parent="1">
          <mxGeometry x="535" y="3360" width="170" height="60" as="geometry" />
        </mxCell>
        <mxCell id="Re3BrL7D_ri76bv2ay9p-114" style="edgeStyle=orthogonalEdgeStyle;rounded=0;orthogonalLoop=1;jettySize=auto;html=1;fontFamily=Helvetica;fontSize=14;fontColor=default;strokeWidth=1;" edge="1" parent="1" source="Re3BrL7D_ri76bv2ay9p-89">
          <mxGeometry relative="1" as="geometry">
            <mxPoint x="620" y="3310.0000000000005" as="targetPoint" />
          </mxGeometry>
        </mxCell>
        <mxCell id="Re3BrL7D_ri76bv2ay9p-89" value="ขยับข้อมูล list" style="whiteSpace=wrap;html=1;strokeWidth=1;rounded=0;align=center;verticalAlign=middle;fontFamily=Helvetica;fontSize=14;fontColor=default;fillColor=none;gradientColor=none;" vertex="1" parent="1">
          <mxGeometry x="279" y="3280" width="220" height="60" as="geometry" />
        </mxCell>
        <mxCell id="Re3BrL7D_ri76bv2ay9p-93" value="&lt;ul&gt;&lt;li&gt;แสดงข้อมูลทั้งหมดตามลำดับ&lt;/li&gt;&lt;/ul&gt;" style="text;html=1;align=left;verticalAlign=middle;whiteSpace=wrap;rounded=0;fontFamily=Helvetica;fontSize=16;fontColor=default;strokeWidth=1;" vertex="1" parent="1">
          <mxGeometry x="80" y="3580" width="280" height="30" as="geometry" />
        </mxCell>
        <mxCell id="Re3BrL7D_ri76bv2ay9p-98" value="" style="edgeStyle=orthogonalEdgeStyle;rounded=0;orthogonalLoop=1;jettySize=auto;html=1;fontFamily=Helvetica;fontSize=14;fontColor=default;strokeWidth=1;" edge="1" parent="1" source="Re3BrL7D_ri76bv2ay9p-94" target="Re3BrL7D_ri76bv2ay9p-97">
          <mxGeometry relative="1" as="geometry" />
        </mxCell>
        <mxCell id="Re3BrL7D_ri76bv2ay9p-94" value="เริ่ม" style="strokeWidth=1;html=1;shape=mxgraph.flowchart.terminator;whiteSpace=wrap;rounded=0;align=center;verticalAlign=middle;fontFamily=Helvetica;fontSize=14;fontColor=default;fillColor=none;gradientColor=none;" vertex="1" parent="1">
          <mxGeometry x="329" y="3670" width="170" height="60" as="geometry" />
        </mxCell>
        <mxCell id="Re3BrL7D_ri76bv2ay9p-107" value="" style="edgeStyle=orthogonalEdgeStyle;rounded=0;orthogonalLoop=1;jettySize=auto;html=1;fontFamily=Helvetica;fontSize=14;fontColor=default;strokeWidth=1;" edge="1" parent="1" source="Re3BrL7D_ri76bv2ay9p-97" target="Re3BrL7D_ri76bv2ay9p-106">
          <mxGeometry relative="1" as="geometry" />
        </mxCell>
        <mxCell id="Re3BrL7D_ri76bv2ay9p-97" value="ถ้าข้อมูลใน list ไม่ว่าง" style="rhombus;whiteSpace=wrap;html=1;rounded=0;align=center;verticalAlign=middle;fontFamily=Helvetica;fontSize=14;fontColor=default;fillColor=none;gradientColor=none;strokeWidth=1;" vertex="1" parent="1">
          <mxGeometry x="279" y="3770" width="270" height="130" as="geometry" />
        </mxCell>
        <mxCell id="Re3BrL7D_ri76bv2ay9p-109" value="" style="edgeStyle=orthogonalEdgeStyle;rounded=0;orthogonalLoop=1;jettySize=auto;html=1;fontFamily=Helvetica;fontSize=14;fontColor=default;strokeWidth=1;" edge="1" parent="1" source="Re3BrL7D_ri76bv2ay9p-106" target="Re3BrL7D_ri76bv2ay9p-108">
          <mxGeometry relative="1" as="geometry" />
        </mxCell>
        <mxCell id="Re3BrL7D_ri76bv2ay9p-106" value="แสดงข้อมูลใน list" style="shape=parallelogram;perimeter=parallelogramPerimeter;whiteSpace=wrap;html=1;fixedSize=1;strokeWidth=1;rounded=0;align=center;verticalAlign=middle;fontFamily=Helvetica;fontSize=14;fontColor=default;fillColor=none;gradientColor=none;" vertex="1" parent="1">
          <mxGeometry x="296" y="3950" width="235" height="60" as="geometry" />
        </mxCell>
        <mxCell id="Re3BrL7D_ri76bv2ay9p-108" value="ขยับข้อมูล list" style="whiteSpace=wrap;html=1;strokeWidth=1;rounded=0;align=center;verticalAlign=middle;fontFamily=Helvetica;fontSize=14;fontColor=default;fillColor=none;gradientColor=none;" vertex="1" parent="1">
          <mxGeometry x="304" y="4061.5" width="220" height="60" as="geometry" />
        </mxCell>
        <mxCell id="Re3BrL7D_ri76bv2ay9p-110" style="edgeStyle=orthogonalEdgeStyle;rounded=0;orthogonalLoop=1;jettySize=auto;html=1;entryX=0;entryY=0.5;entryDx=0;entryDy=0;fontFamily=Helvetica;fontSize=14;fontColor=default;exitX=0.5;exitY=1;exitDx=0;exitDy=0;strokeWidth=1;" edge="1" parent="1" source="Re3BrL7D_ri76bv2ay9p-108" target="Re3BrL7D_ri76bv2ay9p-97">
          <mxGeometry relative="1" as="geometry">
            <Array as="points">
              <mxPoint x="414" y="4170" />
              <mxPoint x="240" y="4170" />
              <mxPoint x="240" y="3835" />
            </Array>
          </mxGeometry>
        </mxCell>
        <mxCell id="Re3BrL7D_ri76bv2ay9p-111" value="จบ" style="strokeWidth=1;html=1;shape=mxgraph.flowchart.terminator;whiteSpace=wrap;rounded=0;align=center;verticalAlign=middle;fontFamily=Helvetica;fontSize=14;fontColor=default;fillColor=none;gradientColor=none;" vertex="1" parent="1">
          <mxGeometry x="329" y="4230" width="170" height="60" as="geometry" />
        </mxCell>
        <mxCell id="Re3BrL7D_ri76bv2ay9p-112" style="edgeStyle=orthogonalEdgeStyle;rounded=0;orthogonalLoop=1;jettySize=auto;html=1;entryX=0.5;entryY=0;entryDx=0;entryDy=0;entryPerimeter=0;fontFamily=Helvetica;fontSize=14;fontColor=default;exitX=1;exitY=0.5;exitDx=0;exitDy=0;strokeWidth=1;" edge="1" parent="1" source="Re3BrL7D_ri76bv2ay9p-97" target="Re3BrL7D_ri76bv2ay9p-111">
          <mxGeometry relative="1" as="geometry">
            <Array as="points">
              <mxPoint x="569" y="3835" />
              <mxPoint x="569" y="4200" />
              <mxPoint x="414" y="4200" />
            </Array>
          </mxGeometry>
        </mxCell>
      </root>
    </mxGraphModel>
  </diagram>
</mxfile>
